Coordinates
version=1
nRows=31
nColumns=38
inDegrees=no

Units are S.I. units (second, meters, Newtons, ...)
If the header above contains a line with 'inDegrees', this indicates whether rotational values are in degrees (yes) or radians (no).

endheader
time	pelvis_tilt	pelvis_list	pelvis_rotation	pelvis_tx	pelvis_ty	pelvis_tz	hip_flexion_r	hip_adduction_r	hip_rotation_r	knee_angle_r	ankle_angle_r	subtalar_angle_r	mtp_angle_r	hip_flexion_l	hip_adduction_l	hip_rotation_l	knee_angle_l	ankle_angle_l	subtalar_angle_l	mtp_angle_l	lumbar_extension	lumbar_bending	lumbar_rotation	arm_flex_r	arm_add_r	arm_rot_r	elbow_flex_r	pro_sup_r	wrist_flex_r	wrist_dev_r	arm_flex_l	arm_add_l	arm_rot_l	elbow_flex_l	pro_sup_l	wrist_flex_l	wrist_dev_l
0.6	2.96518	1.41013	-1.28909	0.637206	0.165101	0.936618	0.343832	-0.134542	-0.230188	0.735743	0.158166	0	0	-0.311045	0.0578366	-0.0512349	0	0.141187	0	0	-0.307046	-0.0440583	-0.238974	-0.0262122	-0.249859	0.217365	0.474902	1.0464	0	0	-0.0397651	-0.435208	0.332531	0.739473	1.26828	0	0
0.61	2.96435	1.41567	-1.28464	0.637727	0.174469	0.935183	0.347881	-0.133755	-0.245504	0.669818	0.161868	0	0	-0.317251	0.0561966	-0.0503906	0	0.148655	0	0	-0.304438	-0.0450506	-0.243104	-0.0256646	-0.248171	0.220587	0.47521	1.04713	0	0	-0.0318118	-0.437356	0.333616	0.738107	1.26953	0	0
0.62	2.96627	1.42229	-1.28384	0.63843	0.183887	0.933509	0.352375	-0.132623	-0.26015	0.602615	0.163235	0	0	-0.3223	0.0554155	-0.0504407	0	0.156882	0	0	-0.300893	-0.0470749	-0.246063	-0.0256747	-0.246239	0.221761	0.475863	1.04743	0	0	-0.0233763	-0.439637	0.335838	0.736437	1.27181	0	0
0.63	2.96857	1.42939	-1.28427	0.639311	0.193371	0.931661	0.356011	-0.129964	-0.273908	0.53429	0.16388	0	0	-0.326755	0.0549438	-0.0520553	0	0.166295	0	0	-0.296799	-0.0495497	-0.247759	-0.0260713	-0.244262	0.221501	0.476355	1.04786	0	0	-0.0146773	-0.441818	0.33885	0.734532	1.27479	0	0
0.64	2.97089	1.43675	-1.28532	0.640349	0.202954	0.929623	0.3586	-0.125568	-0.286545	0.46593	0.164666	0	0	-0.330946	0.0545557	-0.0541411	0	0.176113	0	0	-0.292285	-0.0522948	-0.248364	-0.0269073	-0.242209	0.219683	0.476871	1.04893	0	0	-0.00582469	-0.443864	0.342413	0.732507	1.27875	0	0
0.65	2.97087	1.4448	-1.28506	0.641567	0.212653	0.927333	0.361035	-0.119208	-0.296272	0.398518	0.16621	0	0	-0.334307	0.0542234	-0.0579992	0	0.187029	0	0	-0.286623	-0.055266	-0.247398	-0.0282315	-0.240097	0.216551	0.477199	1.05091	0	0	0.0029978	-0.445765	0.346636	0.730586	1.28274	0	0
0.66	2.96565	1.45269	-1.28105	0.642923	0.222564	0.924913	0.36196	-0.110315	-0.29958	0.33121	0.167556	0	0	-0.337641	0.05356	-0.0648547	0	0.199582	0	0	-0.280546	-0.0578693	-0.244396	-0.0297872	-0.237877	0.211369	0.477031	1.05429	0	0	0.0119564	-0.44722	0.351334	0.728435	1.28748	0	0
0.67	2.94675	1.46105	-1.26537	0.64448	0.2331	0.922354	0.358893	-0.0983281	-0.292179	0.259341	0.165312	0	0	-0.351937	0.0508713	-0.0777286	0	0.213664	0	0	-0.272388	-0.0595627	-0.239097	-0.0318428	-0.235344	0.202553	0.475553	1.06151	0	0	0.0198131	-0.447595	0.354769	0.725777	1.29521	0	0
0.68	2.93926	1.46613	-1.26132	0.646098	0.243276	0.920098	0.351121	-0.0864929	-0.278205	0.191307	0.160952	0	0	-0.355189	0.0493129	-0.0889848	0	0.227582	0	0	-0.268605	-0.0614251	-0.234093	-0.0323325	-0.232571	0.193047	0.473263	1.07213	0	0	0.0269376	-0.447557	0.355399	0.723767	1.30456	0	0
0.69	2.936	1.46992	-1.26172	0.647733	0.253703	0.917859	0.340088	-0.0748502	-0.25768	0.127431	0.151172	0	0	-0.360373	0.0478777	-0.0996743	0	0.240764	0	0	-0.265646	-0.0633301	-0.229046	-0.0326636	-0.23003	0.183547	0.470462	1.08408	0	0	0.0327984	-0.447241	0.354822	0.722215	1.31398	0	0
0.7	2.93813	1.4718	-1.26699	0.649251	0.264477	0.915686	0.327043	-0.0648402	-0.235843	0.0731285	0.137059	0	0	-0.368698	0.0463562	-0.108178	0	0.252727	0	0	-0.263936	-0.064875	-0.224553	-0.0332072	-0.228373	0.17573	0.46802	1.09373	0	0	0.0374414	-0.446596	0.354018	0.721084	1.32132	0	0
0.71	2.94399	1.47153	-1.27471	0.650542	0.275604	0.913627	0.314217	-0.0571728	-0.220026	0.034898	0.124011	0	0	-0.378921	0.0441049	-0.115969	0.00559068	0.265251	0	0	-0.263724	-0.0655442	-0.221282	-0.034081	-0.227588	0.168894	0.466249	1.10171	0	0	0.0409552	-0.445256	0.352286	0.719933	1.32765	0	0
0.72	2.9519	1.47034	-1.28335	0.651593	0.286993	0.911626	0.308756	-0.052975	-0.221123	0.02556	0.122579	0	0	-0.389369	0.0413962	-0.12202	0.0160704	0.277222	0	0	-0.263896	-0.0655413	-0.219547	-0.0349663	-0.227942	0.166889	0.465215	1.10307	0	0	0.0430959	-0.443695	0.350988	0.719099	1.32869	0	0
0.73	2.95554	1.46717	-1.28696	0.652463	0.298642	0.909844	0.30517	-0.0496559	-0.22759	0.0349255	0.12443	0	0	-0.400435	0.0371975	-0.128942	0.029895	0.29027	0	0	-0.265553	-0.0639197	-0.218734	-0.035539	-0.228564	0.165024	0.464159	1.10485	0	0	0.0441549	-0.441229	0.34817	0.718026	1.33014	0	0
0.74	2.95659	1.46323	-1.28719	0.653176	0.310507	0.908188	0.305847	-0.0482998	-0.242469	0.0646774	0.128687	0	0	-0.411208	0.0320561	-0.135305	0.0460648	0.302861	0	0	-0.267482	-0.0612703	-0.219061	-0.0359274	-0.229306	0.164007	0.463205	1.10685	0	0	0.0438333	-0.437953	0.34351	0.716825	1.33171	0	0
0.75	2.96189	1.45947	-1.29052	0.65374	0.322631	0.906561	0.308639	-0.0495618	-0.260956	0.105001	0.133034	0	0	-0.420798	0.0267967	-0.140361	0.0648867	0.314565	0	0	-0.26906	-0.0586784	-0.221108	-0.036549	-0.229968	0.163973	0.462969	1.10877	0	0	0.0416009	-0.434392	0.33669	0.716427	1.33332	0	0
0.76	2.96828	1.45593	-1.29384	0.654205	0.335013	0.904997	0.311218	-0.0521611	-0.278384	0.145991	0.137335	0	0	-0.429518	0.0211056	-0.143852	0.0854295	0.324634	0	0	-0.270344	-0.0558637	-0.224744	-0.0375279	-0.230686	0.165071	0.463725	1.11065	0	0	0.0374316	-0.430727	0.327938	0.717145	1.33503	0	0
0.77	2.96908	1.45212	-1.29084	0.654705	0.347496	0.903664	0.312006	-0.0539216	-0.291748	0.179515	0.133708	0	0	-0.437666	0.0140435	-0.146507	0.106947	0.332903	0	0	-0.271685	-0.0521104	-0.229197	-0.0383265	-0.231429	0.167917	0.464539	1.11265	0	0	0.0323888	-0.426957	0.318554	0.717866	1.33652	0	0
0.78	2.9572	1.44777	-1.27532	0.655383	0.359959	0.902713	0.310045	-0.0525979	-0.29922	0.201593	0.113795	0	0	-0.44472	0.00479344	-0.14984	0.130441	0.339514	0	0	-0.273402	-0.046554	-0.233164	-0.0383463	-0.232031	0.172021	0.464429	1.1143	0	0	0.0273341	-0.422592	0.308521	0.717458	1.33767	0	0
0.79	2.86811	1.43082	-1.18366	0.655742	0.371222	0.904072	0.303617	-0.0395801	-0.31192	0.231118	0.0794131	0	0	-0.457043	-0.0184228	-0.159925	0.158558	0.343071	0	0	-0.28846	-0.0239739	-0.232781	-0.031858	-0.234705	0.177074	0.462254	1.11525	0	0	0.0295304	-0.41239	0.296778	0.709688	1.33898	0	0
0.8	2.90576	1.43829	-1.21843	0.657424	0.385006	0.901888	0.301713	-0.0442873	-0.311357	0.234783	0.055518	0	0	-0.452547	-0.0195862	-0.162564	0.187956	0.346398	0	0	-0.277335	-0.0314683	-0.237349	-0.0379385	-0.231644	0.179739	0.462778	1.11575	0	0	0.0176536	-0.411476	0.284785	0.71314	1.34137	0	0
0.81	2.88078	1.43578	-1.19163	0.658673	0.397691	0.901778	0.300859	-0.0417655	-0.317664	0.259274	0.0419109	0	0	-0.45033	-0.0321016	-0.169927	0.223577	0.345992	0	0	-0.277005	-0.0247777	-0.238299	-0.0384329	-0.230088	0.182456	0.461838	1.11503	0	0	0.0114193	-0.406156	0.273947	0.711844	1.34329	0	0
0.82	2.85787	1.43242	-1.16632	0.659794	0.410481	0.902118	0.300762	-0.0407128	-0.326197	0.290955	0.0394477	0	0	-0.446119	-0.0457385	-0.176997	0.264208	0.342149	0	0	-0.277348	-0.0174997	-0.239614	-0.0391308	-0.228066	0.185508	0.460964	1.11329	0	0	0.00476612	-0.40033	0.263304	0.709986	1.34532	0	0
0.83	2.83769	1.42823	-1.14361	0.660863	0.423274	0.90299	0.299561	-0.039666	-0.331288	0.324428	0.0422558	0	0	-0.438904	-0.0605197	-0.184507	0.311334	0.333076	0	0	-0.278644	-0.00985662	-0.240572	-0.040129	-0.225719	0.18919	0.460756	1.11027	0	0	-0.00156833	-0.394273	0.253905	0.70786	1.34713	0	0
0.84	2.81593	1.42387	-1.1201	0.662115	0.435979	0.904306	0.2962	-0.0366138	-0.332986	0.35378	0.0479036	0	0	-0.426367	-0.0771063	-0.193442	0.367041	0.317012	0	0	-0.280167	-0.00198012	-0.240301	-0.0413699	-0.223037	0.193266	0.461435	1.10606	0	0	-0.00766219	-0.388579	0.246479	0.705961	1.34817	0	0
0.85	2.78671	1.42091	-1.0904	0.663639	0.448447	0.905804	0.291059	-0.0305672	-0.332777	0.374288	0.0541586	0	0	-0.405038	-0.0956839	-0.202793	0.432947	0.293436	0	0	-0.280061	0.00605596	-0.238737	-0.0423473	-0.220419	0.199498	0.462646	1.09931	0	0	-0.0137868	-0.383594	0.241192	0.704676	1.34756	0	0
0.86	2.75071	1.42036	-1.05502	0.665348	0.460634	0.907261	0.284681	-0.0223491	-0.332059	0.384739	0.058936	0	0	-0.374809	-0.115137	-0.210576	0.505859	0.258392	0	0	-0.277276	0.0137492	-0.236142	-0.0429358	-0.21836	0.208607	0.463654	1.08958	0	0	-0.0198865	-0.379803	0.239699	0.704546	1.34348	0	0
0.87	2.67099	1.40695	-0.97711	0.666616	0.47157	0.91051	0.271514	-0.00269329	-0.339339	0.394269	0.0539841	0	0	-0.347665	-0.147507	-0.219468	0.581195	0.209312	0	0	-0.285674	0.0368737	-0.228963	-0.0379211	-0.220092	0.222261	0.463284	1.07451	0	0	-0.0187887	-0.372071	0.241503	0.69924	1.33555	0	0
0.88	2.66945	1.42577	-0.978728	0.669027	0.484385	0.909538	0.271148	-0.00409313	-0.330247	0.386088	0.0636083	0	0	-0.296467	-0.150727	-0.215807	0.658429	0.153524	0	0	-0.264311	0.0261752	-0.226857	-0.0449275	-0.218522	0.241639	0.46608	1.04886	0	0	-0.0315329	-0.376535	0.253583	0.709408	1.31768	0	0
0.89	2.62253	1.42993	-0.935662	0.670886	0.495967	0.910336	0.263194	0.00630034	-0.326949	0.379136	0.0658518	0	0	-0.252954	-0.166179	-0.212046	0.733462	0.0930111	0	0	-0.255857	0.0318579	-0.220019	-0.0471795	-0.22007	0.258689	0.46788	1.02584	0	0	-0.0366204	-0.376741	0.267612	0.714784	1.29831	0	0
0.9	2.57379	1.43409	-0.890409	0.672587	0.50734	0.910992	0.254774	0.0165444	-0.322136	0.370756	0.0696112	0	0	-0.208359	-0.180054	-0.204746	0.806176	0.0332898	0	0	-0.247153	0.0374942	-0.21291	-0.0504443	-0.221954	0.271352	0.470279	1.00513	0	0	-0.0407356	-0.377314	0.283141	0.720747	1.27995	0	0
